# xmcd
# 
# Track frame offsets:
#     150
#     19812
#     40812
#     62857
#     85310
#     103365
#     122177
#     149937
#     173290
# 
# Disc length: 2703
# 
# Revision: 8
# Processed by: cddbd v1.5.2PL0 Copyright (c) Steve Scherf et al.
# Submitted via: fre:ac v1.0.31
# 
DISCID=810a8d09
DTITLE=中島みゆき - グッバイガール
DYEAR=1988
DGENRE=JPop
TTITLE0=野ウサギのように
TTITLE1=ふらふら
TTITLE2=MEGAMI
TTITLE3=気にしないで
TTITLE4=十二月
TTITLE5=たとえ世界が空から落ちても
TTITLE6=愛よりも
TTITLE7=涙 - Made in tears -
TTITLE8=吹雪
EXTD=YEAR: 1988
EXTT0=
EXTT1=
EXTT2=
EXTT3=
EXTT4=
EXTT5=
EXTT6=
EXTT7=
EXTT8=
PLAYORDER=
